# Blender 3.4.1
# www.blender.org
o Cylinder
v 0.000000 -1.005000 0.000000
v 0.000000 1.005000 0.000000
v 0.000000 -1.005000 -1.000000
v 0.000000 1.005000 -1.000000
v 0.098017 -1.005000 -0.995185
v 0.098017 1.005000 -0.995185
v 0.195090 -1.005000 -0.980785
v 0.195090 1.005000 -0.980785
v 0.290285 -1.005000 -0.956940
v 0.290285 1.005000 -0.956940
v 0.382683 -1.005000 -0.923880
v 0.382683 1.005000 -0.923880
v 0.471397 -1.005000 -0.881921
v 0.471397 1.005000 -0.881921
v 0.555570 -1.005000 -0.831470
v 0.555570 1.005000 -0.831470
v 0.634393 -1.005000 -0.773010
v 0.634393 1.005000 -0.773010
v 0.707107 -1.005000 -0.707107
v 0.707107 1.005000 -0.707107
v 0.773010 -1.005000 -0.634393
v 0.773010 1.005000 -0.634393
v 0.831470 -1.005000 -0.555570
v 0.831470 1.005000 -0.555570
v 0.881921 -1.005000 -0.471397
v 0.881921 1.005000 -0.471397
v 0.923880 -1.005000 -0.382683
v 0.923880 1.005000 -0.382683
v 0.956940 -1.005000 -0.290285
v 0.956940 1.005000 -0.290285
v 0.980785 -1.005000 -0.195090
v 0.980785 1.005000 -0.195090
v 0.995185 -1.005000 -0.098017
v 0.995185 1.005000 -0.098017
v 1.000000 -1.005000 0.000000
v 1.000000 1.005000 0.000000
v 0.995185 -1.005000 0.098017
v 0.995185 1.005000 0.098017
v 0.980785 -1.005000 0.195090
v 0.980785 1.005000 0.195090
v 0.956940 -1.005000 0.290285
v 0.956940 1.005000 0.290285
v 0.923880 -1.005000 0.382683
v 0.923880 1.005000 0.382683
v 0.881921 -1.005000 0.471397
v 0.881921 1.005000 0.471397
v 0.831470 -1.005000 0.555570
v 0.831470 1.005000 0.555570
v 0.773010 -1.005000 0.634393
v 0.773010 1.005000 0.634393
v 0.707107 -1.005000 0.707107
v 0.707107 1.005000 0.707107
v 0.634393 -1.005000 0.773010
v 0.634393 1.005000 0.773010
v 0.555570 -1.005000 0.831470
v 0.555570 1.005000 0.831470
v 0.471397 -1.005000 0.881921
v 0.471397 1.005000 0.881921
v 0.382683 -1.005000 0.923880
v 0.382683 1.005000 0.923880
v 0.290285 -1.005000 0.956940
v 0.290285 1.005000 0.956940
v 0.195090 -1.005000 0.980785
v 0.195090 1.005000 0.980785
v 0.098017 -1.005000 0.995185
v 0.098017 1.005000 0.995185
v 0.000000 -1.005000 1.000000
v 0.000000 1.005000 1.000000
v -0.098017 -1.005000 0.995185
v -0.098017 1.005000 0.995185
v -0.195090 -1.005000 0.980785
v -0.195090 1.005000 0.980785
v -0.290285 -1.005000 0.956940
v -0.290285 1.005000 0.956940
v -0.382683 -1.005000 0.923880
v -0.382683 1.005000 0.923880
v -0.471397 -1.005000 0.881921
v -0.471397 1.005000 0.881921
v -0.555570 -1.005000 0.831470
v -0.555570 1.005000 0.831470
v -0.634393 -1.005000 0.773010
v -0.634393 1.005000 0.773010
v -0.707107 -1.005000 0.707107
v -0.707107 1.005000 0.707107
v -0.773010 -1.005000 0.634393
v -0.773010 1.005000 0.634393
v -0.831470 -1.005000 0.555570
v -0.831470 1.005000 0.555570
v -0.881921 -1.005000 0.471397
v -0.881921 1.005000 0.471397
v -0.923880 -1.005000 0.382683
v -0.923880 1.005000 0.382683
v -0.956940 -1.005000 0.290285
v -0.956940 1.005000 0.290285
v -0.980785 -1.005000 0.195090
v -0.980785 1.005000 0.195090
v -0.995185 -1.005000 0.098017
v -0.995185 1.005000 0.098017
v -1.000000 -1.005000 0.000000
v -1.000000 1.005000 0.000000
v -0.995185 -1.005000 -0.098017
v -0.995185 1.005000 -0.098017
v -0.980785 -1.005000 -0.195090
v -0.980785 1.005000 -0.195090
v -0.956940 -1.005000 -0.290285
v -0.956940 1.005000 -0.290285
v -0.923880 -1.005000 -0.382683
v -0.923880 1.005000 -0.382683
v -0.881921 -1.005000 -0.471397
v -0.881921 1.005000 -0.471397
v -0.831470 -1.005000 -0.555570
v -0.831470 1.005000 -0.555570
v -0.773010 -1.005000 -0.634393
v -0.773010 1.005000 -0.634393
v -0.707107 -1.005000 -0.707107
v -0.707107 1.005000 -0.707107
v -0.634393 -1.005000 -0.773010
v -0.634393 1.005000 -0.773010
v -0.555570 -1.005000 -0.831470
v -0.555570 1.005000 -0.831470
v -0.471397 -1.005000 -0.881921
v -0.471397 1.005000 -0.881921
v -0.382683 -1.005000 -0.923880
v -0.382683 1.005000 -0.923880
v -0.290285 -1.005000 -0.956940
v -0.290285 1.005000 -0.956940
v -0.195090 -1.005000 -0.980785
v -0.195090 1.005000 -0.980785
v -0.098017 -1.005000 -0.995185
v -0.098017 1.005000 -0.995185
vn -0.0000 -1.0000 -0.0000
vn -0.0000 1.0000 -0.0000
vn 0.0491 -0.0000 -0.9988
vn 0.1467 -0.0000 -0.9892
vn 0.2430 -0.0000 -0.9700
vn 0.3369 -0.0000 -0.9415
vn 0.4276 -0.0000 -0.9040
vn 0.5141 -0.0000 -0.8577
vn 0.5957 -0.0000 -0.8032
vn 0.6716 -0.0000 -0.7410
vn 0.7410 -0.0000 -0.6716
vn 0.8032 -0.0000 -0.5957
vn 0.8577 -0.0000 -0.5141
vn 0.9040 -0.0000 -0.4276
vn 0.9415 -0.0000 -0.3369
vn 0.9700 -0.0000 -0.2430
vn 0.9892 -0.0000 -0.1467
vn 0.9988 -0.0000 -0.0491
vn 0.9988 -0.0000 0.0491
vn 0.9892 -0.0000 0.1467
vn 0.9700 -0.0000 0.2430
vn 0.9415 -0.0000 0.3369
vn 0.9040 -0.0000 0.4276
vn 0.8577 -0.0000 0.5141
vn 0.8032 -0.0000 0.5957
vn 0.7410 -0.0000 0.6716
vn 0.6716 -0.0000 0.7410
vn 0.5957 -0.0000 0.8032
vn 0.5141 -0.0000 0.8577
vn 0.4276 -0.0000 0.9040
vn 0.3369 -0.0000 0.9415
vn 0.2430 -0.0000 0.9700
vn 0.1467 -0.0000 0.9892
vn 0.0491 -0.0000 0.9988
vn -0.0491 -0.0000 0.9988
vn -0.1467 -0.0000 0.9892
vn -0.2430 -0.0000 0.9700
vn -0.3369 -0.0000 0.9415
vn -0.4276 -0.0000 0.9040
vn -0.5141 -0.0000 0.8577
vn -0.5957 -0.0000 0.8032
vn -0.6716 -0.0000 0.7410
vn -0.7410 -0.0000 0.6716
vn -0.8032 -0.0000 0.5957
vn -0.8577 -0.0000 0.5141
vn -0.9040 -0.0000 0.4276
vn -0.9415 -0.0000 0.3369
vn -0.9700 -0.0000 0.2430
vn -0.9892 -0.0000 0.1467
vn -0.9988 -0.0000 0.0491
vn -0.9988 -0.0000 -0.0491
vn -0.9892 -0.0000 -0.1467
vn -0.9700 -0.0000 -0.2430
vn -0.9415 -0.0000 -0.3369
vn -0.9040 -0.0000 -0.4276
vn -0.8577 -0.0000 -0.5141
vn -0.8032 -0.0000 -0.5957
vn -0.7410 -0.0000 -0.6716
vn -0.6716 -0.0000 -0.7410
vn -0.5957 -0.0000 -0.8032
vn -0.5141 -0.0000 -0.8577
vn -0.4276 -0.0000 -0.9040
vn -0.3369 -0.0000 -0.9415
vn -0.2430 -0.0000 -0.9700
vn -0.1467 -0.0000 -0.9892
vn -0.0491 -0.0000 -0.9988
vt 0.750000 0.250000
vt 0.250000 0.250000
vt 1.000000 0.500000
vt 0.750000 0.490000
vt 0.000000 0.500000
vt 1.000000 1.000000
vt 0.250000 0.490000
vt 0.000000 1.000000
vt 0.773524 0.488844
vt 0.984375 0.500000
vt 0.273524 0.488844
vt 0.984375 1.000000
vt 0.796822 0.485388
vt 0.968750 0.500000
vt 0.296822 0.485388
vt 0.968750 1.000000
vt 0.819668 0.479666
vt 0.953125 0.500000
vt 0.319668 0.479666
vt 0.953125 1.000000
vt 0.841844 0.471731
vt 0.937500 0.500000
vt 0.341844 0.471731
vt 0.937500 1.000000
vt 0.863135 0.461661
vt 0.921875 0.500000
vt 0.363135 0.461661
vt 0.921875 1.000000
vt 0.883337 0.449553
vt 0.906250 0.500000
vt 0.383337 0.449553
vt 0.906250 1.000000
vt 0.902254 0.435522
vt 0.890625 0.500000
vt 0.402254 0.435522
vt 0.890625 1.000000
vt 0.919706 0.419706
vt 0.875000 0.500000
vt 0.419706 0.419706
vt 0.875000 1.000000
vt 0.935522 0.402254
vt 0.859375 0.500000
vt 0.435522 0.402254
vt 0.859375 1.000000
vt 0.949553 0.383337
vt 0.843750 0.500000
vt 0.449553 0.383337
vt 0.843750 1.000000
vt 0.961661 0.363135
vt 0.828125 0.500000
vt 0.461661 0.363135
vt 0.828125 1.000000
vt 0.971731 0.341844
vt 0.812500 0.500000
vt 0.471731 0.341844
vt 0.812500 1.000000
vt 0.979666 0.319668
vt 0.796875 0.500000
vt 0.479666 0.319668
vt 0.796875 1.000000
vt 0.985388 0.296822
vt 0.781250 0.500000
vt 0.485388 0.296822
vt 0.781250 1.000000
vt 0.988844 0.273524
vt 0.765625 0.500000
vt 0.488844 0.273524
vt 0.765625 1.000000
vt 0.990000 0.250000
vt 0.750000 0.500000
vt 0.490000 0.250000
vt 0.750000 1.000000
vt 0.988844 0.226476
vt 0.734375 0.500000
vt 0.488844 0.226476
vt 0.734375 1.000000
vt 0.985388 0.203178
vt 0.718750 0.500000
vt 0.485388 0.203178
vt 0.718750 1.000000
vt 0.979666 0.180332
vt 0.703125 0.500000
vt 0.479666 0.180332
vt 0.703125 1.000000
vt 0.971731 0.158156
vt 0.687500 0.500000
vt 0.471731 0.158156
vt 0.687500 1.000000
vt 0.961661 0.136865
vt 0.671875 0.500000
vt 0.461661 0.136865
vt 0.671875 1.000000
vt 0.949553 0.116663
vt 0.656250 0.500000
vt 0.449553 0.116663
vt 0.656250 1.000000
vt 0.935522 0.097746
vt 0.640625 0.500000
vt 0.435522 0.097746
vt 0.640625 1.000000
vt 0.919706 0.080294
vt 0.625000 0.500000
vt 0.419706 0.080294
vt 0.625000 1.000000
vt 0.902254 0.064478
vt 0.609375 0.500000
vt 0.402254 0.064478
vt 0.609375 1.000000
vt 0.883337 0.050447
vt 0.593750 0.500000
vt 0.383337 0.050447
vt 0.593750 1.000000
vt 0.863135 0.038339
vt 0.578125 0.500000
vt 0.363135 0.038339
vt 0.578125 1.000000
vt 0.841844 0.028269
vt 0.562500 0.500000
vt 0.341844 0.028269
vt 0.562500 1.000000
vt 0.819668 0.020334
vt 0.546875 0.500000
vt 0.319668 0.020334
vt 0.546875 1.000000
vt 0.796822 0.014612
vt 0.531250 0.500000
vt 0.296822 0.014612
vt 0.531250 1.000000
vt 0.773524 0.011156
vt 0.515625 0.500000
vt 0.273524 0.011156
vt 0.515625 1.000000
vt 0.750000 0.010000
vt 0.500000 0.500000
vt 0.250000 0.010000
vt 0.500000 1.000000
vt 0.726476 0.011156
vt 0.484375 0.500000
vt 0.226476 0.011156
vt 0.484375 1.000000
vt 0.703178 0.014612
vt 0.468750 0.500000
vt 0.203178 0.014612
vt 0.468750 1.000000
vt 0.680332 0.020334
vt 0.453125 0.500000
vt 0.180332 0.020334
vt 0.453125 1.000000
vt 0.658156 0.028269
vt 0.437500 0.500000
vt 0.158156 0.028269
vt 0.437500 1.000000
vt 0.636865 0.038339
vt 0.421875 0.500000
vt 0.136865 0.038339
vt 0.421875 1.000000
vt 0.616663 0.050447
vt 0.406250 0.500000
vt 0.116663 0.050447
vt 0.406250 1.000000
vt 0.597746 0.064478
vt 0.390625 0.500000
vt 0.097746 0.064478
vt 0.390625 1.000000
vt 0.580294 0.080294
vt 0.375000 0.500000
vt 0.080294 0.080294
vt 0.375000 1.000000
vt 0.564478 0.097746
vt 0.359375 0.500000
vt 0.064478 0.097746
vt 0.359375 1.000000
vt 0.550447 0.116663
vt 0.343750 0.500000
vt 0.050447 0.116663
vt 0.343750 1.000000
vt 0.538339 0.136865
vt 0.328125 0.500000
vt 0.038339 0.136865
vt 0.328125 1.000000
vt 0.528269 0.158156
vt 0.312500 0.500000
vt 0.028269 0.158156
vt 0.312500 1.000000
vt 0.520334 0.180332
vt 0.296875 0.500000
vt 0.020334 0.180332
vt 0.296875 1.000000
vt 0.514612 0.203178
vt 0.281250 0.500000
vt 0.014612 0.203178
vt 0.281250 1.000000
vt 0.511156 0.226476
vt 0.265625 0.500000
vt 0.011156 0.226476
vt 0.265625 1.000000
vt 0.510000 0.250000
vt 0.250000 0.500000
vt 0.010000 0.250000
vt 0.250000 1.000000
vt 0.511156 0.273524
vt 0.234375 0.500000
vt 0.011156 0.273524
vt 0.234375 1.000000
vt 0.514612 0.296822
vt 0.218750 0.500000
vt 0.014612 0.296822
vt 0.218750 1.000000
vt 0.520334 0.319668
vt 0.203125 0.500000
vt 0.020334 0.319668
vt 0.203125 1.000000
vt 0.528269 0.341844
vt 0.187500 0.500000
vt 0.028269 0.341844
vt 0.187500 1.000000
vt 0.538339 0.363135
vt 0.171875 0.500000
vt 0.038339 0.363135
vt 0.171875 1.000000
vt 0.550447 0.383337
vt 0.156250 0.500000
vt 0.050447 0.383337
vt 0.156250 1.000000
vt 0.564478 0.402254
vt 0.140625 0.500000
vt 0.064478 0.402254
vt 0.140625 1.000000
vt 0.580294 0.419706
vt 0.125000 0.500000
vt 0.080294 0.419706
vt 0.125000 1.000000
vt 0.597746 0.435522
vt 0.109375 0.500000
vt 0.097746 0.435522
vt 0.109375 1.000000
vt 0.616663 0.449553
vt 0.093750 0.500000
vt 0.116663 0.449553
vt 0.093750 1.000000
vt 0.636865 0.461661
vt 0.078125 0.500000
vt 0.136865 0.461661
vt 0.078125 1.000000
vt 0.658156 0.471731
vt 0.062500 0.500000
vt 0.158156 0.471731
vt 0.062500 1.000000
vt 0.680332 0.479666
vt 0.046875 0.500000
vt 0.180332 0.479666
vt 0.046875 1.000000
vt 0.703178 0.485388
vt 0.031250 0.500000
vt 0.203178 0.485388
vt 0.031250 1.000000
vt 0.726476 0.488844
vt 0.015625 0.500000
vt 0.226476 0.488844
vt 0.015625 1.000000
s 0
f 1/1/1 3/4/1 5/9/1
f 2/2/2 6/11/2 4/7/2
f 3/3/3 4/6/3 6/12/3 5/10/3
f 1/1/1 5/9/1 7/13/1
f 2/2/2 8/15/2 6/11/2
f 5/10/4 6/12/4 8/16/4 7/14/4
f 1/1/1 7/13/1 9/17/1
f 2/2/2 10/19/2 8/15/2
f 7/14/5 8/16/5 10/20/5 9/18/5
f 1/1/1 9/17/1 11/21/1
f 2/2/2 12/23/2 10/19/2
f 9/18/6 10/20/6 12/24/6 11/22/6
f 1/1/1 11/21/1 13/25/1
f 2/2/2 14/27/2 12/23/2
f 11/22/7 12/24/7 14/28/7 13/26/7
f 1/1/1 13/25/1 15/29/1
f 2/2/2 16/31/2 14/27/2
f 13/26/8 14/28/8 16/32/8 15/30/8
f 1/1/1 15/29/1 17/33/1
f 2/2/2 18/35/2 16/31/2
f 15/30/9 16/32/9 18/36/9 17/34/9
f 1/1/1 17/33/1 19/37/1
f 2/2/2 20/39/2 18/35/2
f 17/34/10 18/36/10 20/40/10 19/38/10
f 1/1/1 19/37/1 21/41/1
f 2/2/2 22/43/2 20/39/2
f 19/38/11 20/40/11 22/44/11 21/42/11
f 1/1/1 21/41/1 23/45/1
f 2/2/2 24/47/2 22/43/2
f 21/42/12 22/44/12 24/48/12 23/46/12
f 1/1/1 23/45/1 25/49/1
f 2/2/2 26/51/2 24/47/2
f 23/46/13 24/48/13 26/52/13 25/50/13
f 1/1/1 25/49/1 27/53/1
f 2/2/2 28/55/2 26/51/2
f 25/50/14 26/52/14 28/56/14 27/54/14
f 1/1/1 27/53/1 29/57/1
f 2/2/2 30/59/2 28/55/2
f 27/54/15 28/56/15 30/60/15 29/58/15
f 1/1/1 29/57/1 31/61/1
f 2/2/2 32/63/2 30/59/2
f 29/58/16 30/60/16 32/64/16 31/62/16
f 1/1/1 31/61/1 33/65/1
f 2/2/2 34/67/2 32/63/2
f 31/62/17 32/64/17 34/68/17 33/66/17
f 1/1/1 33/65/1 35/69/1
f 2/2/2 36/71/2 34/67/2
f 33/66/18 34/68/18 36/72/18 35/70/18
f 1/1/1 35/69/1 37/73/1
f 2/2/2 38/75/2 36/71/2
f 35/70/19 36/72/19 38/76/19 37/74/19
f 1/1/1 37/73/1 39/77/1
f 2/2/2 40/79/2 38/75/2
f 37/74/20 38/76/20 40/80/20 39/78/20
f 1/1/1 39/77/1 41/81/1
f 2/2/2 42/83/2 40/79/2
f 39/78/21 40/80/21 42/84/21 41/82/21
f 1/1/1 41/81/1 43/85/1
f 2/2/2 44/87/2 42/83/2
f 41/82/22 42/84/22 44/88/22 43/86/22
f 1/1/1 43/85/1 45/89/1
f 2/2/2 46/91/2 44/87/2
f 43/86/23 44/88/23 46/92/23 45/90/23
f 1/1/1 45/89/1 47/93/1
f 2/2/2 48/95/2 46/91/2
f 45/90/24 46/92/24 48/96/24 47/94/24
f 1/1/1 47/93/1 49/97/1
f 2/2/2 50/99/2 48/95/2
f 47/94/25 48/96/25 50/100/25 49/98/25
f 1/1/1 49/97/1 51/101/1
f 2/2/2 52/103/2 50/99/2
f 49/98/26 50/100/26 52/104/26 51/102/26
f 1/1/1 51/101/1 53/105/1
f 2/2/2 54/107/2 52/103/2
f 51/102/27 52/104/27 54/108/27 53/106/27
f 1/1/1 53/105/1 55/109/1
f 2/2/2 56/111/2 54/107/2
f 53/106/28 54/108/28 56/112/28 55/110/28
f 1/1/1 55/109/1 57/113/1
f 2/2/2 58/115/2 56/111/2
f 55/110/29 56/112/29 58/116/29 57/114/29
f 1/1/1 57/113/1 59/117/1
f 2/2/2 60/119/2 58/115/2
f 57/114/30 58/116/30 60/120/30 59/118/30
f 1/1/1 59/117/1 61/121/1
f 2/2/2 62/123/2 60/119/2
f 59/118/31 60/120/31 62/124/31 61/122/31
f 1/1/1 61/121/1 63/125/1
f 2/2/2 64/127/2 62/123/2
f 61/122/32 62/124/32 64/128/32 63/126/32
f 1/1/1 63/125/1 65/129/1
f 2/2/2 66/131/2 64/127/2
f 63/126/33 64/128/33 66/132/33 65/130/33
f 1/1/1 65/129/1 67/133/1
f 2/2/2 68/135/2 66/131/2
f 65/130/34 66/132/34 68/136/34 67/134/34
f 1/1/1 67/133/1 69/137/1
f 2/2/2 70/139/2 68/135/2
f 67/134/35 68/136/35 70/140/35 69/138/35
f 1/1/1 69/137/1 71/141/1
f 2/2/2 72/143/2 70/139/2
f 69/138/36 70/140/36 72/144/36 71/142/36
f 1/1/1 71/141/1 73/145/1
f 2/2/2 74/147/2 72/143/2
f 71/142/37 72/144/37 74/148/37 73/146/37
f 1/1/1 73/145/1 75/149/1
f 2/2/2 76/151/2 74/147/2
f 73/146/38 74/148/38 76/152/38 75/150/38
f 1/1/1 75/149/1 77/153/1
f 2/2/2 78/155/2 76/151/2
f 75/150/39 76/152/39 78/156/39 77/154/39
f 1/1/1 77/153/1 79/157/1
f 2/2/2 80/159/2 78/155/2
f 77/154/40 78/156/40 80/160/40 79/158/40
f 1/1/1 79/157/1 81/161/1
f 2/2/2 82/163/2 80/159/2
f 79/158/41 80/160/41 82/164/41 81/162/41
f 1/1/1 81/161/1 83/165/1
f 2/2/2 84/167/2 82/163/2
f 81/162/42 82/164/42 84/168/42 83/166/42
f 1/1/1 83/165/1 85/169/1
f 2/2/2 86/171/2 84/167/2
f 83/166/43 84/168/43 86/172/43 85/170/43
f 1/1/1 85/169/1 87/173/1
f 2/2/2 88/175/2 86/171/2
f 85/170/44 86/172/44 88/176/44 87/174/44
f 1/1/1 87/173/1 89/177/1
f 2/2/2 90/179/2 88/175/2
f 87/174/45 88/176/45 90/180/45 89/178/45
f 1/1/1 89/177/1 91/181/1
f 2/2/2 92/183/2 90/179/2
f 89/178/46 90/180/46 92/184/46 91/182/46
f 1/1/1 91/181/1 93/185/1
f 2/2/2 94/187/2 92/183/2
f 91/182/47 92/184/47 94/188/47 93/186/47
f 1/1/1 93/185/1 95/189/1
f 2/2/2 96/191/2 94/187/2
f 93/186/48 94/188/48 96/192/48 95/190/48
f 1/1/1 95/189/1 97/193/1
f 2/2/2 98/195/2 96/191/2
f 95/190/49 96/192/49 98/196/49 97/194/49
f 1/1/1 97/193/1 99/197/1
f 2/2/2 100/199/2 98/195/2
f 97/194/50 98/196/50 100/200/50 99/198/50
f 1/1/1 99/197/1 101/201/1
f 2/2/2 102/203/2 100/199/2
f 99/198/51 100/200/51 102/204/51 101/202/51
f 1/1/1 101/201/1 103/205/1
f 2/2/2 104/207/2 102/203/2
f 101/202/52 102/204/52 104/208/52 103/206/52
f 1/1/1 103/205/1 105/209/1
f 2/2/2 106/211/2 104/207/2
f 103/206/53 104/208/53 106/212/53 105/210/53
f 1/1/1 105/209/1 107/213/1
f 2/2/2 108/215/2 106/211/2
f 105/210/54 106/212/54 108/216/54 107/214/54
f 1/1/1 107/213/1 109/217/1
f 2/2/2 110/219/2 108/215/2
f 107/214/55 108/216/55 110/220/55 109/218/55
f 1/1/1 109/217/1 111/221/1
f 2/2/2 112/223/2 110/219/2
f 109/218/56 110/220/56 112/224/56 111/222/56
f 1/1/1 111/221/1 113/225/1
f 2/2/2 114/227/2 112/223/2
f 111/222/57 112/224/57 114/228/57 113/226/57
f 1/1/1 113/225/1 115/229/1
f 2/2/2 116/231/2 114/227/2
f 113/226/58 114/228/58 116/232/58 115/230/58
f 1/1/1 115/229/1 117/233/1
f 2/2/2 118/235/2 116/231/2
f 115/230/59 116/232/59 118/236/59 117/234/59
f 1/1/1 117/233/1 119/237/1
f 2/2/2 120/239/2 118/235/2
f 117/234/60 118/236/60 120/240/60 119/238/60
f 1/1/1 119/237/1 121/241/1
f 2/2/2 122/243/2 120/239/2
f 119/238/61 120/240/61 122/244/61 121/242/61
f 1/1/1 121/241/1 123/245/1
f 2/2/2 124/247/2 122/243/2
f 121/242/62 122/244/62 124/248/62 123/246/62
f 1/1/1 123/245/1 125/249/1
f 2/2/2 126/251/2 124/247/2
f 123/246/63 124/248/63 126/252/63 125/250/63
f 1/1/1 125/249/1 127/253/1
f 2/2/2 128/255/2 126/251/2
f 125/250/64 126/252/64 128/256/64 127/254/64
f 1/1/1 127/253/1 129/257/1
f 2/2/2 130/259/2 128/255/2
f 127/254/65 128/256/65 130/260/65 129/258/65
f 1/1/1 129/257/1 3/4/1
f 2/2/2 4/7/2 130/259/2
f 129/258/66 130/260/66 4/8/66 3/5/66
